# xmcd
#
# Track frame offsets:
#	150
#	20798
#	42615
#	65497
#	78985
#	92345
#	111732
#	133967
#	149443
#	166563
#	179658
#
# Disc length: 2516 seconds
#
# Revision: 1
# Processed by: cddbd v1.5.2PL0 Copyright (c) Steve Scherf et al.
# Submitted via: audiograbber 1.83.01
#
DISCID=a109d20b
DTITLE=Thad Beckman - When The Sun Goes Down
DYEAR=2013
DGENRE=
TTITLE0=Dust Bowl Madonna
TTITLE1=Jink Blues
TTITLE2=When The Sun Gows Down
TTITLE3=I Got The Blues About You
TTITLE4=Well Bottom Blues
TTITLE5=Blues In "E"
TTITLE6=Walking Blues
TTITLE7=Blues Before Sunrise
TTITLE8=Buckets Of Rain
TTITLE9=The Assassination Of L. K.
TTITLE10=Jingle, Jangle, Jingle
EXTD=
EXTT0=
EXTT1=
EXTT2=
EXTT3=
EXTT4=
EXTT5=
EXTT6=
EXTT7=
EXTT8=
EXTT9=
EXTT10=
PLAYORDER=
